<svg id="Layer_1" data-name="Layer 1" xmlns="http://www.w3.org/2000/svg" viewBox="0 0 181.32 69.14"><defs><style>.cls-1{fill:#e81515;}.cls-2{fill:#fff;}</style></defs><title>live</title><rect class="cls-1" x="3.66" y="3.81" width="174" height="61.52" rx="5.15"/><path class="cls-2" d="M42.17,41.17v6.46H21.06V22.24H41.7v6.45H29.48v3H40.21v6.16H29.48v3.34Z"/><path class="cls-2" d="M64.89,29.64c1.49,1.47,2.23,3.7,2.23,6.67V47.63H58.93v-9.9c0-2.28-.81-3.41-2.43-3.41a2.83,2.83,0,0,0-2.23,1,4.48,4.48,0,0,0-.86,3v9.32H45.22V27.79H53v2A7.43,7.43,0,0,1,55.7,28a9.08,9.08,0,0,1,3.3-.58A8,8,0,0,1,64.89,29.64Z"/><path class="cls-2" d="M103.65,27.79l-8,19.84H87.18l-8-19.84h8.41l4,10.63,4.28-10.63Z"/><path class="cls-2" d="M105.44,25a4,4,0,0,1,0-6A5.25,5.25,0,0,1,109,17.85,5.45,5.45,0,0,1,112.6,19,3.61,3.61,0,0,1,114,21.88,4,4,0,0,1,112.6,25,5.13,5.13,0,0,1,109,26.19,5.25,5.25,0,0,1,105.44,25Zm-.53,2.78h8.2V47.63h-8.2Z"/><path class="cls-2" d="M138.83,27.79l-8,19.84h-8.49l-8-19.84h8.42l4,10.63,4.27-10.63Z"/><path class="cls-2" d="M144.1,46.67A10.25,10.25,0,0,1,140,43a10.21,10.21,0,0,1,0-10.62,10.06,10.06,0,0,1,4.11-3.65,14.27,14.27,0,0,1,11.9,0,10,10,0,0,1,4.1,3.65,10.33,10.33,0,0,1,0,10.62,10.15,10.15,0,0,1-4.1,3.67,14.07,14.07,0,0,1-11.9,0Zm8.25-6.1a4.2,4.2,0,0,0,.91-2.88,4.15,4.15,0,0,0-.91-2.87,3.17,3.17,0,0,0-4.64,0,4.2,4.2,0,0,0-.9,2.87,4.25,4.25,0,0,0,.9,2.88,3.11,3.11,0,0,0,4.64,0Z"/></svg>